<svg width="61" height="61" viewBox="0 0 61 61" fill="none" xmlns="http://www.w3.org/2000/svg">
<path d="M30.5 22.875V33.0416M30.5 43.2083H30.5254M26.1537 9.8108L4.62579 45.75C4.18194 46.5186 3.94709 47.3901 3.9446 48.2777C3.94211 49.1653 4.17208 50.0381 4.61163 50.8092C5.05117 51.5804 5.68497 52.223 6.44997 52.6731C7.21497 53.1232 8.08449 53.3652 8.97204 53.375H52.0279C52.9154 53.3652 53.785 53.1232 54.55 52.6731C55.315 52.223 55.9488 51.5804 56.3883 50.8092C56.8278 50.0381 57.0578 49.1653 57.0553 48.2777C57.0528 47.3901 56.818 46.5186 56.3741 45.75L34.8462 9.8108C34.3931 9.06383 33.7551 8.44623 32.9938 8.01762C32.2325 7.589 31.3736 7.36383 30.5 7.36383C29.6263 7.36383 28.7674 7.589 28.0061 8.01762C27.2448 8.44623 26.6068 9.06383 26.1537 9.8108Z" stroke="#E2FCD6" stroke-width="4" stroke-linecap="round" stroke-linejoin="round"/>
</svg>
