<svg width="16" height="14" viewBox="0 0 16 14" fill="none" xmlns="http://www.w3.org/2000/svg">
<path d="M6.03711 0.5H9.95898C10.3237 0.5 10.6546 0.697994 10.8291 1.00781L10.8945 1.14746V1.14844L11.2822 2.17676L11.4043 2.5H14.5C15.052 2.5 15.5 2.94802 15.5 3.5V12.5C15.5 13.052 15.052 13.5 14.5 13.5H1.5C0.948017 13.5 0.5 13.052 0.5 12.5V3.5C0.5 2.94802 0.948017 2.5 1.5 2.5H4.59668L4.71875 2.1748L5.10254 1.14746C5.24799 0.758892 5.62038 0.500161 6.03711 0.5ZM8 3.75C5.65511 3.75 3.75 5.65511 3.75 8C3.75 10.3449 5.65511 12.25 8 12.25C10.3449 12.25 12.25 10.3449 12.25 8C12.25 5.65511 10.3449 3.75 8 3.75ZM8 5.75C9.23948 5.75 10.25 6.76052 10.25 8C10.25 9.23948 9.23948 10.25 8 10.25C6.76052 10.25 5.75 9.23948 5.75 8C5.75 6.76052 6.76052 5.75 8 5.75Z" fill="#2C3E50" stroke="black"/>
</svg>
