<svg width="49" height="54" viewBox="0 0 49 54" fill="none" xmlns="http://www.w3.org/2000/svg">
<path d="M47.2143 16.875C47.9214 16.875 48.5 16.3055 48.5 15.6094V11.3906C48.5 10.6945 47.9214 10.125 47.2143 10.125H45.0714V5.0625C45.0714 2.26758 42.7679 0 39.9286 0H5.64286C2.80357 0 0.5 2.26758 0.5 5.0625V48.9375C0.5 51.7324 2.80357 54 5.64286 54H39.9286C42.7679 54 45.0714 51.7324 45.0714 48.9375V43.875H47.2143C47.9214 43.875 48.5 43.3055 48.5 42.6094V38.3906C48.5 37.6945 47.9214 37.125 47.2143 37.125H45.0714V30.375H47.2143C47.9214 30.375 48.5 29.8055 48.5 29.1094V24.8906C48.5 24.1945 47.9214 23.625 47.2143 23.625H45.0714V16.875H47.2143ZM22.7857 13.5C26.5679 13.5 29.6429 16.527 29.6429 20.25C29.6429 23.973 26.5679 27 22.7857 27C19.0036 27 15.9286 23.973 15.9286 20.25C15.9286 16.527 19.0036 13.5 22.7857 13.5ZM34.7857 38.475C34.7857 39.593 33.7143 40.5 32.3857 40.5H13.1857C11.8571 40.5 10.7857 39.593 10.7857 38.475V36.45C10.7857 33.0961 14.0107 30.375 17.9857 30.375H18.5214C19.8393 30.9129 21.275 31.2188 22.7857 31.2188C24.2964 31.2188 25.7429 30.9129 27.05 30.375H27.5857C31.5607 30.375 34.7857 33.0961 34.7857 36.45V38.475Z" fill="#CCECEE"/>
</svg>
