<svg width="32" height="32" viewBox="0 0 32 32" fill="none" xmlns="http://www.w3.org/2000/svg">
<path d="M12.3975 13.0306C12.3975 11.978 11.5439 11.1244 10.4913 11.1244H9.53815C7.43234 11.1244 5.72565 12.8311 5.72565 14.9369V17.7963C5.72565 19.9021 7.43234 21.6088 9.53815 21.6088H10.4913C11.5439 21.6088 12.3975 20.7551 12.3975 19.7025V13.0306ZM22.8819 21.6088C24.9877 21.6088 26.6944 19.9021 26.6944 17.7963V14.9369C26.6944 12.8311 24.9877 11.1244 22.8819 11.1244H21.9288C20.8762 11.1244 20.0225 11.978 20.0225 13.0306V19.7025C20.0225 20.7551 20.8762 21.6088 21.9288 21.6088H22.8819ZM16.21 0.640015C7.70219 0.640015 1.23285 7.71875 0.960022 15.89V16.8431C0.960022 17.3697 1.38655 17.7963 1.91315 17.7963H2.86627C3.39287 17.7963 3.8194 17.3697 3.8194 16.8431V15.89C3.8194 9.0579 9.3779 3.49939 16.21 3.49939C23.0421 3.49939 28.6006 9.0579 28.6006 15.89H28.5935C28.5983 16.0348 28.6006 25.762 28.6006 25.762C28.6006 27.153 27.473 28.2806 26.082 28.2806H20.0225C20.0225 26.7014 18.7424 25.4213 17.1631 25.4213H15.2569C13.6777 25.4213 12.3975 26.7014 12.3975 28.2806C12.3975 29.8598 13.6777 31.14 15.2569 31.14H26.082C29.0522 31.14 31.46 28.7322 31.46 25.762V15.89C31.1872 7.71875 24.7179 0.640015 16.21 0.640015Z" fill="#095D7E" fill-opacity="0.5"/>
</svg>
