<svg width="49" height="54" viewBox="0 0 49 54" fill="none" xmlns="http://www.w3.org/2000/svg">
<path d="M24.5 27C32.075 27 38.2143 20.9566 38.2143 13.5C38.2143 6.04336 32.075 0 24.5 0C16.925 0 10.7857 6.04336 10.7857 13.5C10.7857 20.9566 16.925 27 24.5 27ZM11.6429 44.7188C11.6429 46.1215 12.7893 47.25 14.2143 47.25C15.6393 47.25 16.7857 46.1215 16.7857 44.7188C16.7857 43.316 15.6393 42.1875 14.2143 42.1875C12.7893 42.1875 11.6429 43.316 11.6429 44.7188ZM34.7857 30.4383V35.6063C38.6964 36.3867 41.6429 39.8039 41.6429 43.875V48.273C41.6429 49.0746 41.0643 49.7707 40.2607 49.9289L36.8107 50.6039C36.35 50.6988 35.9 50.4035 35.8036 49.9395L35.4714 48.2836C35.375 47.8301 35.675 47.3766 36.1464 47.2922L38.2143 46.8809V43.875C38.2143 37.2516 27.9286 37.009 27.9286 44.0754V46.8914L29.9964 47.3027C30.4571 47.3977 30.7571 47.8406 30.6714 48.2941L30.3393 49.95C30.2429 50.4035 29.7929 50.6988 29.3321 50.6145L25.9893 50.1715C25.1429 50.0555 24.5107 49.3488 24.5107 48.4945V43.875C24.5107 39.8039 27.4571 36.3973 31.3679 35.6063V30.8391C31.1321 30.9129 30.8964 30.9551 30.6607 31.0395C28.7321 31.7039 26.6643 32.073 24.5107 32.073C22.3571 32.073 20.2893 31.7039 18.3607 31.0395C17.5679 30.7652 16.7643 30.5965 15.9393 30.491V39.0973C18.4143 39.825 20.225 42.0609 20.225 44.7293C20.225 47.9883 17.5357 50.6355 14.225 50.6355C10.9143 50.6355 8.225 47.9883 8.225 44.7293C8.225 42.0609 10.0357 39.825 12.5107 39.0973V30.6176C5.69643 31.7461 0.5 37.5258 0.5 44.55V49.275C0.5 51.8801 2.65357 54 5.3 54H43.7C46.3464 54 48.5 51.8801 48.5 49.275V44.55C48.5 36.9562 42.4143 30.8074 34.7857 30.4383Z" fill="#CCECEE"/>
</svg>
