<svg width="52" height="48" viewBox="0 0 52 48" fill="none" xmlns="http://www.w3.org/2000/svg">
<path d="M32.1914 22.6969L27.2532 33.3464C26.6571 34.6427 24.9282 34.5999 24.3817 33.2821L18.7282 19.7507L15.7474 27.4324H6.39766L24.5308 47.4134C25.2362 48.1955 26.3788 48.1955 27.0843 47.4134L45.2273 27.4324H34.3872L32.1914 22.6969ZM47.4431 4.49439L47.2046 4.22655C42.0876 -1.40885 33.7116 -1.40885 28.5846 4.22655L25.8125 7.29066L23.0404 4.23726C17.9234 -1.40885 9.53742 -1.40885 4.42041 4.23726L4.18194 4.49439C-0.656862 9.82981 -0.865517 18.3258 3.45662 24.004H13.631L17.198 14.7688C17.7346 13.3868 19.5429 13.3546 20.1192 14.726L25.9019 28.5788L30.7705 18.0901C31.3568 16.8258 33.026 16.8258 33.6122 18.0901L36.3545 24.004H48.1684C52.4905 18.3258 52.2819 9.82981 47.4431 4.49439Z" fill="#CCECEE"/>
</svg>
