<svg width="30" height="25" viewBox="0 0 30 25" fill="none" xmlns="http://www.w3.org/2000/svg">
<path d="M14.3518 6.62999L4.98036 14.9013V23.8285C4.98036 24.0596 5.06605 24.2813 5.21856 24.4447C5.37108 24.6082 5.57794 24.7 5.79363 24.7L11.4896 24.6842C11.7046 24.683 11.9104 24.5907 12.062 24.4274C12.2137 24.2641 12.2988 24.0431 12.2988 23.8127V18.5993C12.2988 18.3682 12.3845 18.1465 12.537 17.983C12.6895 17.8196 12.8964 17.7278 13.1121 17.7278H16.3651C16.5808 17.7278 16.7877 17.8196 16.9402 17.983C17.0927 18.1465 17.1784 18.3682 17.1784 18.5993V23.8089C17.1781 23.9235 17.1989 24.0372 17.2396 24.1432C17.2803 24.2493 17.3402 24.3457 17.4157 24.4269C17.4913 24.5081 17.581 24.5725 17.6799 24.6165C17.7787 24.6605 17.8847 24.6831 17.9917 24.6831L23.6856 24.7C23.9013 24.7 24.1081 24.6082 24.2607 24.4447C24.4132 24.2813 24.4989 24.0596 24.4989 23.8285V14.8953L15.1295 6.62999C15.0193 6.53484 14.8821 6.48296 14.7406 6.48296C14.5991 6.48296 14.4619 6.53484 14.3518 6.62999ZM29.1548 12.2519L24.9055 8.49832V0.953632C24.9055 0.780275 24.8412 0.614018 24.7268 0.491436C24.6125 0.368854 24.4573 0.299988 24.2955 0.299988H21.4491C21.2873 0.299988 21.1322 0.368854 21.0178 0.491436C20.9034 0.614018 20.8391 0.780275 20.8391 0.953632V4.90873L16.2884 0.896438C15.8517 0.511321 15.3037 0.300758 14.7381 0.300758C14.1725 0.300758 13.6245 0.511321 13.1878 0.896438L0.321337 12.2519C0.259573 12.3066 0.208473 12.3738 0.170957 12.4497C0.133441 12.5255 0.110244 12.6086 0.102691 12.6941C0.0951384 12.7796 0.103378 12.8658 0.12694 12.9479C0.150502 13.03 0.188924 13.1063 0.24001 13.1724L1.53616 14.861C1.58711 14.9274 1.64977 14.9824 1.72057 15.0228C1.79136 15.0632 1.8689 15.0882 1.94874 15.0964C2.02858 15.1047 2.10915 15.096 2.18584 15.0708C2.26253 15.0457 2.33384 15.0045 2.39569 14.9498L14.3518 4.3967C14.4619 4.30156 14.5991 4.24967 14.7406 4.24967C14.8821 4.24967 15.0193 4.30156 15.1295 4.3967L27.0861 14.9498C27.1478 15.0045 27.219 15.0457 27.2956 15.071C27.3722 15.0962 27.4527 15.105 27.5324 15.0969C27.6122 15.0889 27.6897 15.064 27.7605 15.0238C27.8313 14.9836 27.894 14.9288 27.9451 14.8626L29.2412 13.1741C29.2923 13.1075 29.3305 13.0308 29.3538 12.9484C29.3771 12.866 29.385 12.7794 29.3769 12.6937C29.3689 12.608 29.3451 12.5249 29.307 12.449C29.2689 12.3732 29.2172 12.3062 29.1548 12.2519Z" fill="#E2FCD6"/>
</svg>
