<svg width="50" height="56" viewBox="0 0 50 56" fill="none" xmlns="http://www.w3.org/2000/svg">
<path d="M32.1429 14.875V0H9.82143C8.33705 0 7.14286 1.17031 7.14286 2.625V28H0.892857C0.401786 28 0 28.3937 0 28.875V30.625C0 31.1063 0.401786 31.5 0.892857 31.5H16.6183C16.9531 31.5 17.2656 31.6859 17.4219 31.9812L19.6429 36.3344L25.9821 23.8984C26.3058 23.2531 27.2545 23.2531 27.5781 23.8984L31.4509 31.5H39.2857C40.2679 31.5 41.0714 32.2875 41.0714 33.25C41.0714 34.2125 40.2679 35 39.2857 35H29.2522L26.7857 30.1656L20.4464 42.6016C20.1228 43.2469 19.1741 43.2469 18.8504 42.6016L14.9665 35H7.14286V53.375C7.14286 54.8297 8.33705 56 9.82143 56H47.3214C48.8058 56 50 54.8297 50 53.375V17.5H34.8214C33.3482 17.5 32.1429 16.3188 32.1429 14.875ZM49.2188 11.4844L38.2924 0.765625C37.7902 0.273438 37.1094 0 36.3951 0H35.7143V14H50V13.3328C50 12.6438 49.721 11.9766 49.2188 11.4844Z" fill="#CCECEE"/>
</svg>
