<svg width="61" height="61" viewBox="0 0 61 61" fill="none" xmlns="http://www.w3.org/2000/svg">
<path d="M52.9683 11.7171C51.6701 10.4183 50.1288 9.38802 48.4323 8.68509C46.7359 7.98216 44.9176 7.62036 43.0812 7.62036C41.2449 7.62036 39.4266 7.98216 37.7301 8.68509C36.0337 9.38802 34.4923 10.4183 33.1941 11.7171L30.5 14.4113L27.8058 11.7171C25.1836 9.09487 21.6271 7.62172 17.9187 7.62172C14.2104 7.62172 10.6539 9.09487 8.03164 11.7171C5.40943 14.3393 3.93628 17.8958 3.93628 21.6042C3.93628 25.3125 5.40943 28.869 8.03164 31.4913L30.5 53.9596L52.9683 31.4913C54.2671 30.1931 55.2974 28.6517 56.0003 26.9553C56.7032 25.2588 57.065 23.4405 57.065 21.6042C57.065 19.7678 56.7032 17.9495 56.0003 16.2531C55.2974 14.5566 54.2671 13.0153 52.9683 11.7171Z" stroke="#E2FCD6" stroke-width="4" stroke-linecap="round" stroke-linejoin="round"/>
</svg>
