<svg width="28" height="30" viewBox="0 0 28 30" fill="none" xmlns="http://www.w3.org/2000/svg">
<circle cx="21" cy="8" r="7" fill="#FF0100"/>
<path d="M20.9963 12.1193C20.34 12.1193 19.7562 12.0128 19.2449 11.7997C18.7363 11.5838 18.3372 11.2898 18.0474 10.9176C17.7576 10.5455 17.6127 10.1236 17.6127 9.65199C17.6127 9.28835 17.6951 8.95455 17.8599 8.65057C18.0275 8.34375 18.2548 8.08949 18.5417 7.88778C18.8287 7.68324 19.1497 7.55256 19.5048 7.49574V7.43608C19.0389 7.34233 18.661 7.11648 18.3713 6.75852C18.0815 6.39773 17.9366 5.97869 17.9366 5.50142C17.9366 5.04972 18.0687 4.64773 18.3329 4.29545C18.5971 3.94034 18.9593 3.66193 19.4196 3.46023C19.8826 3.25568 20.4082 3.15341 20.9963 3.15341C21.5843 3.15341 22.1085 3.25568 22.5687 3.46023C23.0318 3.66477 23.3954 3.9446 23.6596 4.29972C23.9238 4.65199 24.0574 5.05256 24.0602 5.50142C24.0574 5.98153 23.9096 6.40057 23.617 6.75852C23.3244 7.11648 22.9494 7.34233 22.492 7.43608V7.49574C22.8414 7.55256 23.1582 7.68324 23.4423 7.88778C23.7292 8.08949 23.9565 8.34375 24.1241 8.65057C24.2946 8.95455 24.3812 9.28835 24.3841 9.65199C24.3812 10.1236 24.2349 10.5455 23.9451 10.9176C23.6554 11.2898 23.2548 11.5838 22.7434 11.7997C22.2349 12.0128 21.6525 12.1193 20.9963 12.1193ZM20.9963 10.7642C21.2889 10.7642 21.5446 10.7116 21.7633 10.6065C21.9821 10.4986 22.1525 10.3509 22.2747 10.1634C22.3997 9.97301 22.4622 9.75426 22.4622 9.5071C22.4622 9.25426 22.3983 9.03125 22.2704 8.83807C22.1426 8.64205 21.9693 8.48864 21.7505 8.37784C21.5318 8.2642 21.2804 8.20739 20.9963 8.20739C20.715 8.20739 20.4636 8.2642 20.242 8.37784C20.0204 8.48864 19.8457 8.64205 19.7179 8.83807C19.5929 9.03125 19.5304 9.25426 19.5304 9.5071C19.5304 9.75426 19.5914 9.97301 19.7136 10.1634C19.8358 10.3509 20.0076 10.4986 20.2292 10.6065C20.4508 10.7116 20.7065 10.7642 20.9963 10.7642ZM20.9963 6.86506C21.2406 6.86506 21.4579 6.81534 21.6483 6.71591C21.8386 6.61648 21.9877 6.47869 22.0957 6.30256C22.2037 6.12642 22.2576 5.9233 22.2576 5.69318C22.2576 5.46591 22.2037 5.26705 22.0957 5.09659C21.9877 4.9233 21.84 4.78835 21.6525 4.69176C21.465 4.59233 21.2463 4.54261 20.9963 4.54261C20.7491 4.54261 20.5304 4.59233 20.34 4.69176C20.1497 4.78835 20.0005 4.9233 19.8926 5.09659C19.7875 5.26705 19.7349 5.46591 19.7349 5.69318C19.7349 5.9233 19.7889 6.12642 19.8968 6.30256C20.0048 6.47869 20.1539 6.61648 20.3443 6.71591C20.5346 6.81534 20.752 6.86506 20.9963 6.86506Z" fill="#F1F9FF"/>
<path d="M14.1982 27.625C13.8142 28.4317 12.9826 29 12 29C11.0174 29 10.1858 28.4317 9.80176 27.625H14.1982ZM12 4C12.4081 4 12.7129 4.32215 12.7129 4.6875V6.60254L13.5127 6.7666C17.0192 7.48364 19.5674 10.3828 19.5674 13.9688C19.5674 16.7885 20.0738 18.7088 20.7705 20.0977C21.2905 21.1341 21.9059 21.8426 22.3857 22.3486L22.8125 22.792V22.793C22.9171 22.9036 22.9714 23.019 22.9912 23.1318L23 23.2432V23.2441C22.9976 23.6037 22.7109 23.9375 22.2803 23.9375H1.71973C1.34341 23.9375 1.07624 23.6824 1.01367 23.377L1 23.2432C0.999041 23.0969 1.04813 22.9405 1.18848 22.792L1.1875 22.791C1.67311 22.2774 2.53627 21.4794 3.22949 20.0977C3.92622 18.7088 4.43262 16.7885 4.43262 13.9688C4.43262 10.3828 6.98076 7.48364 10.4873 6.7666L11.2871 6.60254V4.6875C11.2871 4.32215 11.5919 4 12 4Z" stroke="#F1F9FF" stroke-width="2"/>
</svg>
