<svg width="53" height="42" viewBox="0 0 53 42" fill="none" xmlns="http://www.w3.org/2000/svg">
<path d="M0 4.5V37.5C0 39.9844 1.95964 42 4.375 42H8.75V0H4.375C1.95964 0 0 2.01562 0 4.5ZM11.6667 42H40.8333V0H11.6667V42ZM17.5 18.75C17.5 18.3375 17.8281 18 18.2292 18H23.3333V12.75C23.3333 12.3375 23.6615 12 24.0625 12H28.4375C28.8385 12 29.1667 12.3375 29.1667 12.75V18H34.2708C34.6719 18 35 18.3375 35 18.75V23.25C35 23.6625 34.6719 24 34.2708 24H29.1667V29.25C29.1667 29.6625 28.8385 30 28.4375 30H24.0625C23.6615 30 23.3333 29.6625 23.3333 29.25V24H18.2292C17.8281 24 17.5 23.6625 17.5 23.25V18.75ZM48.125 0H43.75V42H48.125C50.5404 42 52.5 39.9844 52.5 37.5V4.5C52.5 2.01562 50.5404 0 48.125 0Z" fill="#CCECEE"/>
</svg>
