<svg width="12" height="22" viewBox="0 0 12 22" fill="none" xmlns="http://www.w3.org/2000/svg">
<path d="M0.872281 2.73C1.16161 2.45933 1.47895 2.20267 1.82428 1.96C2.17895 1.71733 2.56161 1.50267 2.97228 1.316C3.39228 1.12933 3.84028 0.984665 4.31628 0.881999C4.80161 0.769999 5.32428 0.713998 5.88428 0.713998C6.62161 0.713998 7.30295 0.821332 7.92828 1.036C8.56295 1.25067 9.10895 1.554 9.56628 1.946C10.0236 2.338 10.3829 2.814 10.6443 3.374C10.9056 3.934 11.0363 4.564 11.0363 5.264C11.0363 5.97333 10.9289 6.58467 10.7143 7.098C10.5089 7.61133 10.2429 8.064 9.91628 8.456C9.59895 8.83867 9.24895 9.17467 8.86628 9.464C8.49295 9.744 8.13828 10.01 7.80228 10.262C7.46628 10.514 7.17695 10.766 6.93428 11.018C6.70095 11.27 6.56561 11.55 6.52828 11.858L6.27628 14H4.56828L4.40028 11.676C4.36295 11.256 4.44228 10.892 4.63828 10.584C4.83428 10.2667 5.09095 9.97267 5.40828 9.702C5.72561 9.422 6.07561 9.15133 6.45828 8.89C6.84095 8.61933 7.19562 8.32067 7.52228 7.994C7.85828 7.66733 8.13828 7.29867 8.36228 6.888C8.58628 6.468 8.69828 5.96867 8.69828 5.39C8.69828 4.98867 8.61895 4.62467 8.46028 4.298C8.30161 3.97133 8.08695 3.696 7.81628 3.472C7.54562 3.23867 7.22362 3.06133 6.85028 2.94C6.48628 2.81867 6.09428 2.758 5.67428 2.758C5.10495 2.758 4.61495 2.828 4.20428 2.968C3.80295 3.108 3.46228 3.262 3.18228 3.43C2.90228 3.598 2.67361 3.752 2.49628 3.892C2.32828 4.032 2.18828 4.102 2.07628 4.102C1.84295 4.102 1.66095 3.99467 1.53028 3.78L0.872281 2.73ZM3.60228 19.46C3.60228 19.2173 3.64428 18.9887 3.72828 18.774C3.82161 18.5593 3.94295 18.3727 4.09228 18.214C4.25095 18.0553 4.43761 17.9293 4.65228 17.836C4.86695 17.7427 5.09561 17.696 5.33828 17.696C5.58095 17.696 5.80961 17.7427 6.02428 17.836C6.23895 17.9293 6.42561 18.0553 6.58428 18.214C6.74295 18.3727 6.86895 18.5593 6.96228 18.774C7.05561 18.9887 7.10228 19.2173 7.10228 19.46C7.10228 19.712 7.05561 19.9453 6.96228 20.16C6.86895 20.3653 6.74295 20.5473 6.58428 20.706C6.42561 20.8647 6.23895 20.986 6.02428 21.07C5.80961 21.1633 5.58095 21.21 5.33828 21.21C5.09561 21.21 4.86695 21.1633 4.65228 21.07C4.43761 20.986 4.25095 20.8647 4.09228 20.706C3.94295 20.5473 3.82161 20.3653 3.72828 20.16C3.64428 19.9453 3.60228 19.712 3.60228 19.46Z" fill="#CCECEE"/>
</svg>
