<svg width="31" height="32" viewBox="0 0 31 32" fill="none" xmlns="http://www.w3.org/2000/svg">
<path d="M30.1304 19.5549L27.394 18.0422C27.6703 16.6156 27.6703 15.1521 27.394 13.7255L30.1304 12.2128C30.4452 12.0406 30.5865 11.684 30.4837 11.3519C29.7707 9.16282 28.5567 7.18279 26.9701 5.53481C26.726 5.2827 26.3278 5.2212 26.0194 5.39338L23.283 6.90608C22.1332 5.9591 20.81 5.22735 19.3776 4.74772V1.72848C19.3776 1.38412 19.127 1.08281 18.7737 1.00902C16.4163 0.504791 14.0011 0.529387 11.7593 1.00902C11.406 1.08281 11.1555 1.38412 11.1555 1.72848V4.75387C9.7295 5.23965 8.40626 5.9714 7.25003 6.91223L4.52006 5.39953C4.20531 5.22735 3.81347 5.2827 3.56938 5.54096C1.98278 7.18279 0.768747 9.16282 0.0557417 11.3581C-0.0534573 11.6901 0.0942826 12.0468 0.409033 12.219L3.14543 13.7317C2.86922 15.1583 2.86922 16.6218 3.14543 18.0484L0.409033 19.5611C0.0942826 19.7332 -0.0470339 20.0899 0.0557417 20.422C0.768747 22.6111 1.98278 24.5911 3.56938 26.2391C3.81347 26.4912 4.21173 26.5527 4.52006 26.3805L7.25646 24.8678C8.40626 25.8148 9.7295 26.5465 11.1619 27.0262V30.0516C11.1619 30.3959 11.4124 30.6972 11.7657 30.771C14.1232 31.2752 16.5384 31.2506 18.7802 30.771C19.1335 30.6972 19.384 30.3959 19.384 30.0516V27.0262C20.81 26.5404 22.1332 25.8086 23.2894 24.8678L26.0259 26.3805C26.3406 26.5527 26.7324 26.4973 26.9765 26.2391C28.5631 24.5972 29.7772 22.6172 30.4902 20.422C30.5865 20.0837 30.4452 19.7271 30.1304 19.5549ZM15.2665 20.8032C12.4338 20.8032 10.1278 18.5956 10.1278 15.8839C10.1278 13.1721 12.4338 10.9645 15.2665 10.9645C18.0993 10.9645 20.4053 13.1721 20.4053 15.8839C20.4053 18.5956 18.0993 20.8032 15.2665 20.8032Z" fill="#095D7E" fill-opacity="0.5"/>
</svg>
